HIERARCHY
ROOT Hips
{
	OFFSET 0.00000 0.00000 0.00000
	CHANNELS 6 Xposition Yposition Zposition Zrotation Yrotation Xrotation 
	JOINT LHipJoint
	{
		OFFSET 0 0 0
		CHANNELS 3 Zrotation Yrotation Xrotation
		JOINT LeftUpLeg
		{
			OFFSET 1.35324 -1.81393 0.86676
			CHANNELS 3 Zrotation Yrotation Xrotation
			JOINT LeftLeg
			{
				OFFSET 2.44396 -6.71474 0.00000
				CHANNELS 3 Zrotation Yrotation Xrotation
				JOINT LeftFoot
				{
					OFFSET 2.78389 -7.64869 0.00000
					CHANNELS 3 Zrotation Yrotation Xrotation
					JOINT LeftToeBase
					{
						OFFSET 0.15837 -0.43512 1.94704
						CHANNELS 3 Zrotation Yrotation Xrotation
						End Site
						{
							OFFSET 0.00000 -0.00000 1.00735
						}
					}
				}
			}
		}
	}
	JOINT RHipJoint
	{
		OFFSET 0 0 0
		CHANNELS 3 Zrotation Yrotation Xrotation
		JOINT RightUpLeg
		{
			OFFSET -1.14956 -1.81393 0.86676
			CHANNELS 3 Zrotation Yrotation Xrotation
			JOINT RightLeg
			{
				OFFSET -2.55632 -7.02343 0.00000
				CHANNELS 3 Zrotation Yrotation Xrotation
				JOINT RightFoot
				{
					OFFSET -2.63038 -7.22691 0.00000
					CHANNELS 3 Zrotation Yrotation Xrotation
					JOINT RightToeBase
					{
						OFFSET -0.22277 -0.61205 2.06087
						CHANNELS 3 Zrotation Yrotation Xrotation
						End Site
						{
							OFFSET -0.00000 -0.00000 1.07867
						}
					}
				}
			}
		}
	}
	JOINT LowerBack
	{
		OFFSET 0 0 0
		CHANNELS 3 Zrotation Yrotation Xrotation
		JOINT Spine
		{
			OFFSET -0.05682 2.18266 -0.21665
			CHANNELS 3 Zrotation Yrotation Xrotation
			JOINT Spine1
			{
				OFFSET 0.08791 2.18267 0.00700
				CHANNELS 3 Zrotation Yrotation Xrotation
				JOINT Neck
				{
					OFFSET 0 0 0
					CHANNELS 3 Zrotation Yrotation Xrotation
					JOINT Neck1
					{
						OFFSET -0.14851 1.58495 0.25390
						CHANNELS 3 Zrotation Yrotation Xrotation
						JOINT Head
						{
							OFFSET 0.13566 1.62237 -0.28476
							CHANNELS 3 Zrotation Yrotation Xrotation
							End Site
							{
								OFFSET 0.05601 1.65818 -0.12921
							}
						}
					}
				}
				JOINT LeftShoulder
				{
					OFFSET 0 0 0
					CHANNELS 3 Zrotation Yrotation Xrotation
					JOINT LeftArm
					{
						OFFSET 3.23337 0.97114 -0.51072
						CHANNELS 3 Zrotation Yrotation Xrotation
						JOINT LeftForeArm
						{
							OFFSET 5.19964 -0.00068 -0.00051
							CHANNELS 3 Zrotation Yrotation Xrotation
							JOINT LeftHand
							{
								OFFSET 3.32189 -0.00000 0.00000
								CHANNELS 3 Zrotation Yrotation Xrotation
								JOINT LeftFingerBase
								{
									OFFSET 0 0 0
									CHANNELS 3 Zrotation Yrotation Xrotation
									JOINT LeftHandIndex1
									{
										OFFSET 0.64562 -0.00000 0.00000
										CHANNELS 3 Zrotation Yrotation Xrotation
										End Site
										{
											OFFSET 0.52051 -0.00000 0.00000
										}
									}
								}
								JOINT LThumb
								{
									OFFSET 0 0 0
									CHANNELS 3 Zrotation Yrotation Xrotation
									End Site
									{
										OFFSET 0.52846 -0.00000 0.52846
									}
								}
							}
						}
					}
				}
				JOINT RightShoulder
				{
					OFFSET 0 0 0
					CHANNELS 3 Zrotation Yrotation Xrotation
					JOINT RightArm
					{
						OFFSET -2.95712 1.24697 -0.52388
						CHANNELS 3 Zrotation Yrotation Xrotation
						JOINT RightForeArm
						{
							OFFSET -5.65950 -0.00000 -0.00000
							CHANNELS 3 Zrotation Yrotation Xrotation
							JOINT RightHand
							{
								OFFSET -3.37604 -0.00000 -0.00000
								CHANNELS 3 Zrotation Yrotation Xrotation
								JOINT RightFingerBase
								{
									OFFSET 0 0 0
									CHANNELS 3 Zrotation Yrotation Xrotation
									JOINT RightHandIndex1
									{
										OFFSET -0.82470 -0.00000 -0.00000
										CHANNELS 3 Zrotation Yrotation Xrotation
										End Site
										{
											OFFSET -0.66490 -0.00000 -0.00000
										}
									}
								}
								JOINT RThumb
								{
									OFFSET 0 0 0
									CHANNELS 3 Zrotation Yrotation Xrotation
									End Site
									{
										OFFSET -0.67505 -0.00000 0.67505
									}
								}
							}
						}
					}
				}
			}
		}
	}
}
MOTION
Frames: 13
Frame Time: 0.0540541
0.00 0.00 0.00 -23.4133 -21.3374 0.4495 0.0000 0.0000 0.0000 0.2287 -4.1740 -52.9077 8.2358 16.2900 53.4078 0.0710 -3.2736 7.3026 1.0829 6.6140 18.5767 0.0000 0.0000 0.0000 1.7851 8.9733 20.9767 -17.8640 -19.8903 83.7437 0.2059 -18.6045 11.1617 -3.5706 -11.5660 34.2134 7.3401 -0.1624 12.9914 13.7326 1.5711 1.0721 10.6653 0.7139 -6.4354 -17.2427 -8.1230 -5.4741 8.5098 -12.4263 35.8152 4.6443 -6.8607 15.1255 0.0000 0.0000 0.0000 -31.5391 30.4958 -26.0076 25.9293 -37.1388 -8.8449 -0.0000 -0.0000 1.6689 26.6648 38.7072 17.4340 -7.1250 0.0000 -0.0000 -13.1317 71.4799 -8.3244 0.0000 0.0000 0.0000 51.6897 -13.5663 -2.2009 -52.1582 53.8297 -27.9072 0.0000 -0.0000 -6.1392 -23.8106 21.2820 -9.0995 7.1250 -0.0000 -0.0000 3.0720 -6.9450 2.6820
0.00 0.00 0.00 -11.1947 -22.1655 -10.8770 0.0000 0.0000 0.0000 -14.8473 -6.4017 -48.6953 14.1272 19.1522 72.5926 0.1385 -2.9659 -6.6289 0.6589 5.1919 14.4567 0.0000 0.0000 0.0000 -15.5661 17.7692 -7.3893 -21.0296 -19.9746 93.0116 2.2497 -26.3550 -2.5865 -6.5263 -14.9197 47.0592 1.2066 0.1301 20.3340 9.9001 1.0479 4.5043 10.0187 0.5037 -6.6491 -15.5953 -7.9941 -3.5362 7.1966 -12.0250 32.8295 3.9149 -6.6016 13.0033 -0.0000 -0.0000 0.0000 -52.6003 16.9810 -35.8463 31.7507 -42.3475 -12.5726 -0.0000 0.0000 -5.2452 24.2965 38.9057 15.8294 -7.1250 0.0000 -0.0000 -16.6298 70.8764 -10.3552 -0.0000 -0.0000 0.0000 65.1580 -16.6693 -13.9813 -40.4282 48.3216 -18.7584 0.0000 -0.0000 -8.2592 -27.3575 16.3211 -8.2730 7.1250 -0.0000 -0.0000 0.2762 -11.7328 0.2143
0.00 0.00 0.00 -7.3456 -21.1702 -14.2524 0.0000 0.0000 0.0000 -21.6879 -5.9849 -46.1865 16.3847 19.6837 79.3758 0.5863 -2.9245 -13.7617 0.7811 5.6424 15.7503 0.0000 0.0000 0.0000 -13.5946 12.8676 -29.7487 -15.4073 -19.4866 76.4606 3.9391 -32.5620 -14.3449 -7.8712 -16.0237 52.0973 0.1231 -0.7034 24.7224 9.0702 -0.1636 4.9724 10.2615 -0.0499 -8.2198 -16.2370 -7.2867 -2.3609 6.4293 -10.7404 31.5570 3.9397 -6.1896 12.0466 -0.0000 0.0000 0.0000 -65.2041 10.1670 -24.1459 29.4295 -40.3994 -11.0380 -0.0000 0.0000 -13.3155 19.0854 38.2099 12.0798 -7.1250 0.0000 -0.0000 -22.2272 68.5667 -12.8031 -0.0000 0.0000 0.0000 71.0746 -19.0995 -12.7216 -35.0852 44.8729 -14.8734 0.0000 -0.0000 -10.4933 -21.9970 19.4409 -7.6577 7.1250 -0.0000 -0.0000 4.0654 -9.1818 3.3733
0.00 0.00 0.00 -6.1476 -18.4201 -13.8852 0.0000 0.0000 0.0000 -25.2990 -6.5653 -45.4528 17.1753 19.8076 81.7157 0.8627 -4.8569 -16.5903 1.6587 8.1156 23.0659 0.0000 0.0000 0.0000 -7.5908 8.1210 -40.1727 -9.9481 -17.3806 59.3148 3.5403 -31.0939 -13.1427 -6.9121 -15.2574 48.5411 0.1309 -2.1450 24.5195 8.6583 -2.0992 5.0096 10.3469 -1.0099 -7.7411 -15.5184 -6.9628 -3.4974 5.9679 -9.9758 30.9309 3.7038 -5.7648 11.8322 -0.0000 0.0000 0.0000 -72.2746 5.9903 -16.6620 28.5084 -39.5801 -10.4461 -0.0000 0.0000 -10.4525 18.7441 36.9017 11.5166 -7.1250 0.0000 -0.0000 -20.9681 67.2819 -11.4470 -0.0000 0.0000 0.0000 74.8405 -20.0133 -11.1132 -33.4946 43.7068 -13.7626 0.0000 -0.0000 -6.9078 -21.0317 20.9065 -7.8126 7.1250 -0.0000 -0.0000 4.8029 -7.7870 4.1228
0.00 0.00 0.00 -5.8462 -18.0782 -13.6413 0.0000 0.0000 0.0000 -26.3525 -6.0049 -44.9496 17.2237 19.8142 81.8584 0.9675 -5.4038 -17.5664 1.7616 8.3507 23.7843 0.0000 0.0000 0.0000 -5.1997 7.4261 -43.2931 -8.5724 -16.5245 54.5991 4.0501 -33.3921 -19.9850 -7.9432 -16.0773 52.3578 0.2422 -2.3949 24.0842 8.5474 -2.4418 5.1435 10.2008 -1.1994 -7.3176 -14.9957 -6.9569 -4.1064 5.6089 -9.8302 30.9253 3.4797 -5.6615 11.8770 -0.0000 0.0000 0.0000 -74.4536 4.2195 -13.7339 28.5030 -39.5752 -10.4426 -0.0000 0.0000 -9.7173 20.6803 36.4925 12.6526 -7.1250 0.0000 -0.0000 -18.1733 67.4855 -9.9610 -0.0000 0.0000 0.0000 76.1318 -20.5313 -10.0488 -33.4274 43.6560 -13.7162 0.0000 -0.0000 -7.1326 -21.8736 20.7192 -8.0838 7.1250 -0.0000 -0.0000 4.2504 -7.8545 3.6400
0.00 0.00 0.00 -6.2487 -16.9744 -12.6903 0.0000 0.0000 0.0000 -28.5413 -1.6437 -42.8662 16.9965 19.7823 81.1876 1.2925 -8.6329 -20.3618 2.6955 10.1851 29.5782 0.0000 0.0000 0.0000 8.6231 1.0213 -53.6888 -6.0028 -14.4311 44.9930 2.5510 -26.8986 -11.0319 -5.5605 -13.9884 43.1911 1.0874 -3.4703 23.1356 9.0749 -3.6722 5.1534 10.5739 -1.8443 -6.6189 -13.4466 -6.2766 -5.6524 3.7683 -8.3219 31.4213 2.6839 -4.9912 12.0256 -0.0000 -0.0000 0.0000 -84.2672 -2.0148 -2.1250 28.3730 -39.4574 -10.3599 -0.0000 0.0000 -9.6387 23.3583 42.6225 16.3016 -7.1250 0.0000 -0.0000 -24.2077 73.8687 -16.7737 -0.0000 -0.0000 0.0000 79.8773 -21.7200 -9.2511 -31.3249 42.0023 -12.2867 0.0000 -0.0000 -6.1014 -22.2340 20.5714 -8.1738 7.1250 -0.0000 -0.0000 4.0076 -7.9540 3.4231
0.00 0.00 0.00 -7.4110 -7.1320 -10.3294 0.0000 0.0000 0.0000 -34.9214 0.7127 -32.1763 15.2748 19.4560 76.0630 1.6522 -11.7707 -23.2573 3.2166 11.0377 32.4073 0.0000 0.0000 0.0000 32.3858 4.9416 -64.0788 -8.7964 -16.6749 55.3832 -0.3392 -13.3068 13.1139 -1.3327 -7.3103 20.6379 1.0145 -7.6066 19.5393 9.3807 -9.2742 4.0401 11.8940 -4.6667 -4.9161 -9.5997 -2.7620 -9.7608 5.3606 -3.8092 30.0250 3.1566 -2.2489 11.6891 -0.0000 -0.0000 0.0000 -103.1290 -21.1989 49.3480 22.6244 -33.6755 -6.9289 -0.0000 0.0000 -2.6609 27.0026 30.1708 14.3650 -7.1250 0.0000 -0.0000 -5.2043 63.0295 -2.2812 -0.0000 -0.0000 0.0000 87.4628 -21.9303 -9.2645 -23.1131 34.2123 -7.2018 0.0000 -0.0000 -4.7989 -23.0913 19.5605 -8.1238 7.1250 -0.0000 -0.0000 3.3687 -8.8902 2.8126
0.00 0.00 0.00 -3.2648 -1.8574 -8.5304 0.0000 0.0000 0.0000 -42.7152 5.9298 -24.0665 12.4484 18.5738 67.4031 0.0107 -14.4666 -10.2801 3.0021 10.6984 31.2693 0.0000 0.0000 0.0000 32.7507 12.6092 -52.3927 -12.5176 -18.6010 67.6205 -1.1980 -5.1543 19.6243 -2.8881 -10.5116 30.6500 -1.4302 -9.8908 15.0990 8.3636 -12.9695 2.5839 11.9270 -6.5500 -3.1820 -7.2232 -0.4401 -11.2676 3.8330 -0.3186 28.4077 2.5880 -0.5346 11.0372 0.0000 -0.0000 0.0000 -107.0124 -31.7475 90.8702 30.9595 -41.7018 -12.0429 -0.0000 -0.0000 5.6244 19.0596 24.1336 8.0404 -7.1250 0.0000 -0.0000 -11.0074 55.0030 -2.7284 0.0000 -0.0000 0.0000 83.5296 -20.5312 -5.1257 -19.7848 30.3822 -5.4221 0.0000 -0.0000 -7.3888 -17.8163 18.1139 -5.7060 7.1250 -0.0000 -0.0000 6.7063 -11.1176 5.3249
0.00 0.00 0.00 -3.5410 0.9575 -5.9941 0.0000 0.0000 0.0000 -42.3068 8.3109 -24.2898 11.9717 18.3786 65.8990 -0.6048 -16.8714 -4.4528 2.9976 10.6912 31.2453 0.0000 0.0000 0.0000 33.2418 14.1321 -48.3051 -11.5653 -18.2008 64.6042 -0.0464 0.3493 4.2109 -4.3649 -12.6307 38.0013 -1.3380 -10.4439 13.1128 9.5530 -13.6453 0.8638 13.0515 -6.8439 -3.5420 -7.6871 -0.3891 -10.9664 3.6181 -0.0759 27.7348 2.6046 -0.4795 10.7124 0.0000 -0.0000 0.0000 -111.4984 -34.5741 101.1571 32.5127 -42.9521 -13.0889 -0.0000 -0.0000 7.8472 17.7205 21.6170 6.7138 -7.1250 0.0000 -0.0000 -11.3042 52.2179 -2.0298 0.0000 -0.0000 0.0000 81.1266 -21.5557 -4.4454 -20.3356 31.0445 -5.7034 0.0000 -0.0000 -7.2888 -18.1285 18.9737 -6.0762 7.1250 -0.0000 -0.0000 6.5439 -10.1934 5.3182
0.00 0.00 0.00 -2.3420 8.9446 -2.6822 0.0000 0.0000 0.0000 -41.4434 12.6233 -22.7945 11.4307 18.1395 64.1726 -1.2866 -19.7857 10.5272 3.3932 11.3058 33.3184 0.0000 0.0000 0.0000 27.9510 15.3743 -46.6231 -10.7851 -17.8283 62.0816 -0.1995 -4.1823 -11.0324 -3.3168 -11.1911 32.9270 -1.5437 -11.6735 10.2748 10.1932 -15.2703 -1.5469 13.6309 -7.5688 -3.9998 -8.3776 -1.0957 -11.3491 4.4283 -1.0362 26.1356 2.8730 -0.8428 10.2671 -0.0000 -0.0000 0.0000 -118.5867 -38.4308 115.9232 35.8737 -45.4260 -15.4325 -0.0000 -0.0000 8.3202 15.2384 20.1906 5.3713 -7.1250 0.0000 -0.0000 -13.1700 50.3779 -1.7724 -0.0000 -0.0000 0.0000 81.0395 -20.7318 -11.6387 -20.4929 31.2317 -5.7848 0.0000 -0.0000 -7.6670 -19.8301 19.1141 -6.7345 7.1250 -0.0000 -0.0000 5.4460 -9.8286 4.4571
0.00 0.00 0.00 -2.6101 17.4150 -0.9089 0.0000 0.0000 0.0000 -28.7222 13.9351 -24.5438 13.7816 19.0465 71.5364 -1.6427 -22.6561 2.6763 0.3089 -3.5732 -9.8790 0.0000 0.0000 0.0000 23.2760 9.9168 -44.9115 -10.8032 -17.8374 62.1408 -0.5561 -4.7970 -16.6552 -2.2743 -9.4156 27.1041 -0.4950 -8.0462 10.6348 9.8713 -10.1087 -2.3379 12.5663 -4.7826 -6.5010 -11.1974 -5.3828 -10.7408 7.9763 -7.1592 21.7131 3.7965 -3.4739 9.2855 -0.0000 -0.0000 0.0000 -122.9278 -37.8126 126.5899 44.9134 -50.7260 -22.1717 -0.0000 0.0000 -0.1050 10.7863 20.2336 3.7697 -7.1250 0.0000 -0.0000 -17.4112 49.7305 -2.0869 -0.0000 -0.0000 0.0000 83.2543 -16.5322 -19.2534 -17.1663 27.0765 -4.1628 0.0000 -0.0000 -16.2165 -21.8139 15.0597 -5.9372 7.1250 -0.0000 -0.0000 3.8913 -13.8442 2.8538
0.00 0.00 0.00 -2.5267 18.7074 -1.2090 0.0000 0.0000 0.0000 -18.8116 9.7034 -27.3616 15.6566 19.5416 77.2070 0.4659 -4.5267 -12.1441 0.2049 -2.9144 -8.0405 0.0000 0.0000 0.0000 22.0105 8.2035 -37.5378 -8.6600 -16.5839 54.9066 -0.5486 -6.0860 -17.5284 -2.3579 -9.5748 27.6105 -0.2516 -4.6619 12.1129 8.7574 -5.5077 -2.0434 10.7505 -2.4297 -8.1038 -13.3554 -7.6539 -8.3550 10.3594 -10.5691 19.3573 4.5789 -5.0610 8.6694 -0.0000 -0.0000 0.0000 -107.4353 -34.4903 109.5908 47.3152 -51.8536 -24.0460 -0.0000 0.0000 -5.4220 11.0946 23.7158 4.5095 -7.1250 0.0000 -0.0000 -18.7566 53.1083 -3.8488 -0.0000 -0.0000 0.0000 77.7323 -10.3610 -11.1553 -14.0229 22.7674 -2.8369 0.0000 -0.0000 -8.6442 -9.7178 14.1609 -2.3991 7.1250 -0.0000 -0.0000 12.0792 -15.8270 8.5208
0.00 0.00 0.00 -1.9491 19.8336 -0.7119 0.0000 0.0000 0.0000 -10.1005 -0.3747 -26.5927 12.0866 18.4270 66.2630 0.7399 -8.1390 -15.5137 0.0108 -0.6698 -1.8408 0.0000 0.0000 0.0000 19.7037 6.0806 -31.5306 -6.5954 -14.9815 47.3268 -0.4083 -6.8075 -16.4550 -1.9823 -8.8292 25.2624 0.4798 -3.1578 12.6039 7.2084 -3.4849 -1.7885 8.2447 -1.4971 -8.5975 -13.8285 -8.4242 -7.4799 11.6881 -11.7531 17.2182 4.9678 -5.5742 8.0645 0.0000 -0.0000 0.0000 -90.1575 -29.6000 75.3839 33.5297 -43.7333 -13.7869 -0.0000 0.0000 -0.2685 2.6904 32.9960 1.4659 -7.1250 0.0000 -0.0000 -33.8304 59.6702 -13.0136 0.0000 -0.0000 0.0000 72.8721 -4.0216 -2.8402 -23.0942 34.1916 -7.1911 0.0000 -0.0000 -15.8383 -14.3535 13.9780 -3.5370 7.1250 -0.0000 -0.0000 8.9337 -15.6860 6.2632
